<svg xmlns="http://www.w3.org/2000/svg" width="136" height="136" preserveAspectRatio="xMidYMid meet" version="1.0" viewBox="0 0 502 502"><metadata>Created by potrace 1.11, written by Peter Selinger 2001-2013</metadata><g fill="#000" stroke="none"><path d="M1647 4001 l-97 -230 130 -127 c72 -70 129 -132 128 -136 -2 -5 -39 -22 -83 -37 -422 -149 -773 -473 -996 -921 -94 -188 -141 -320 -182 -520 -38 -179 -60 -469 -48 -620 l8 -94 -43 -101 -43 -100 242 -6 c133 -3 1115 -8 2181 -10 1585 -3 1940 -2 1944 9 2 7 -83 102 -190 210 -107 108 -260 265 -341 347 l-147 150 0 53 c0 62 -25 234 -46 317 -73 292 -219 555 -428 773 -182 190 -456 366 -751 482 -93 37 -270 84 -386 102 l-81 13 -330 337 c-181 186 -333 338 -337 338 -4 0 -51 -103 -104 -229z m638 -966 c19 -20 35 -38 35 -40 0 -4 -252 -600 -468 -1105 l-109 -255 -249 2 c-256 2 -536 11 -542 18 -7 7 20 203 39 280 150 605 569 1039 1079 1120 147 23 174 20 215 -20z m1343 -1407 l-3 -53 -40 1 c-22 1 -184 5 -360 8 -176 4 -327 9 -335 11 -8 2 -157 7 -330 10 -173 4 -319 10 -323 15 -9 8 22 86 236 590 85 201 162 383 172 405 l16 40 485 -487 485 -487 -3 -53z" transform="translate(0.000000,502.000000) scale(0.100000,-0.100000)"/></g></svg>